<!-- Generator: Adobe Illustrator 22.1.0, SVG Export Plug-In  -->
<svg version="1.1"
	 xmlns="http://www.w3.org/2000/svg" xmlns:xlink="http://www.w3.org/1999/xlink" xmlns:a="http://ns.adobe.com/AdobeSVGViewerExtensions/3.0/"
	 x="0px" y="0px" width="223.509px" height="56.7px" viewBox="0 0 223.509 56.7" style="enable-background:new 0 0 223.509 56.7;"
	 xml:space="preserve">
<style type="text/css">
	.st0{fill:#63C9D6;}
</style>
<defs>
</defs>
<polygon class="st0" points="209.397,38.768 3.241,56.7 0,19.442 223.509,0 "/>
<g>
	<path d="M39.585,45.628c-0.914,0.092-1.625-0.052-2.135-0.433c-0.509-0.38-0.967-1.022-1.371-1.923
		c-0.604,1.024-1.412,1.87-2.424,2.542c-1.012,0.67-2.218,1.077-3.617,1.218c-1.575,0.159-3.016,0.019-4.327-0.418
		c-1.311-0.438-2.453-1.109-3.427-2.012c-0.973-0.903-1.756-1.997-2.347-3.282c-0.591-1.284-0.962-2.686-1.114-4.201
		c-0.156-1.554-0.075-3.03,0.246-4.427c0.321-1.397,0.869-2.635,1.643-3.714c0.775-1.079,1.771-1.964,2.987-2.656
		c1.215-0.691,2.64-1.119,4.273-1.284c1.185-0.119,2.324-0.067,3.417,0.157c1.092,0.223,2.079,0.619,2.961,1.189
		c0.881,0.569,1.628,1.308,2.24,2.217c0.612,0.911,1.039,1.982,1.28,3.213l-4.139,0.417c-0.142-0.633-0.391-1.197-0.744-1.691
		c-0.354-0.495-0.783-0.898-1.285-1.21c-0.503-0.313-1.052-0.542-1.644-0.689c-0.595-0.145-1.202-0.187-1.824-0.125
		c-1.049,0.106-1.926,0.42-2.629,0.942c-0.703,0.523-1.261,1.167-1.674,1.936c-0.414,0.767-0.687,1.614-0.82,2.541
		c-0.132,0.926-0.153,1.845-0.061,2.759c0.09,0.894,0.292,1.772,0.604,2.633c0.313,0.863,0.739,1.625,1.276,2.287
		c0.538,0.662,1.193,1.18,1.968,1.553c0.774,0.374,1.675,0.508,2.705,0.405c1.381-0.139,2.434-0.637,3.163-1.496
		c0.728-0.858,1.168-1.903,1.318-3.136l-4.78,0.481l-0.334-3.323l9.24-0.93l0.54,5.363c0.086,0.855,0.299,1.408,0.638,1.659
		c0.339,0.251,0.82,0.345,1.443,0.282L39.585,45.628z"/>
	<path d="M42.406,45.285l-2.113-20.988l13.905-1.4l0.358,3.556l-9.679,0.974l0.531,5.277l8.746-0.88l0.334,3.323l-8.746,0.88
		l0.531,5.277l9.912-0.998l0.358,3.556L42.406,45.285z"/>
	<path d="M64.846,25.417l1.755,17.432l-4.226,0.425L60.62,25.843l-1.575,0.159c-0.836,0.084-1.37,0.286-1.602,0.603
		c-0.233,0.318-0.32,0.779-0.26,1.38l-2.941-1.146c-0.049-0.487-0.058-0.967-0.027-1.44c0.031-0.475,0.158-0.91,0.384-1.305
		s0.57-0.729,1.032-1.002c0.464-0.273,1.093-0.449,1.89-0.529l13.351-1.344l0.358,3.556L64.846,25.417z"/>
	<path d="M90.994,22.785l1.755,17.432l-4.227,0.426L86.767,23.21l-1.573,0.158c-0.836,0.084-1.37,0.286-1.603,0.603
		s-0.319,0.778-0.258,1.38l-2.943-1.146c-0.049-0.487-0.058-0.967-0.027-1.44c0.031-0.475,0.159-0.91,0.385-1.305
		c0.224-0.395,0.568-0.729,1.032-1.002c0.463-0.273,1.093-0.449,1.89-0.529l13.351-1.344l0.358,3.556L90.994,22.785z"/>
	<path d="M100.707,39.416l-2.113-20.988l4.227-0.426l2.113,20.988L100.707,39.416z"/>
	<path d="M125.673,32.207c-0.389,1.11-0.958,2.088-1.707,2.939c-0.749,0.852-1.651,1.541-2.706,2.07
		c-1.057,0.527-2.226,0.857-3.508,0.986c-1.575,0.159-3.016,0.019-4.327-0.418c-1.311-0.438-2.453-1.109-3.427-2.012
		c-0.973-0.903-1.756-1.997-2.347-3.282c-0.591-1.284-0.962-2.686-1.114-4.201c-0.156-1.554-0.075-3.03,0.246-4.427
		c0.321-1.397,0.869-2.635,1.643-3.714c0.775-1.079,1.771-1.964,2.987-2.656c1.215-0.691,2.64-1.119,4.273-1.284
		c1.185-0.119,2.324-0.067,3.417,0.157c1.092,0.223,2.079,0.619,2.961,1.189c0.881,0.569,1.628,1.308,2.24,2.217
		c0.612,0.911,1.039,1.982,1.28,3.213l-4.139,0.417c-0.142-0.633-0.391-1.197-0.744-1.691c-0.354-0.495-0.783-0.898-1.285-1.21
		c-0.503-0.313-1.052-0.542-1.644-0.689c-0.595-0.145-1.202-0.187-1.824-0.125c-1.049,0.106-1.926,0.42-2.629,0.942
		c-0.703,0.523-1.261,1.167-1.674,1.936c-0.414,0.767-0.687,1.614-0.82,2.541c-0.132,0.926-0.153,1.845-0.061,2.759
		c0.09,0.894,0.292,1.772,0.604,2.633c0.313,0.863,0.739,1.625,1.276,2.287c0.539,0.662,1.193,1.18,1.968,1.553
		c0.774,0.374,1.675,0.508,2.705,0.405c0.797-0.08,1.484-0.281,2.059-0.605c0.577-0.323,1.055-0.739,1.435-1.249
		c0.381-0.509,0.666-1.092,0.855-1.75c0.189-0.656,0.305-1.36,0.347-2.111l4.139-0.417
		C126.221,29.898,126.062,31.097,125.673,32.207z"/>
	<path d="M138.807,35.581l-5.651-6.41l0.695,6.908l-4.226,0.425l-2.113-20.988l4.226-0.425L132.433,22l4.26-7.407l4.868-0.49
		l-6.348,11.239l8.46,9.749L138.807,35.581z"/>
	<path d="M145.249,34.932l-2.113-20.988l13.905-1.4l0.358,3.556l-9.679,0.974l0.531,5.277l8.746-0.88l0.335,3.323l-8.746,0.88
		l0.531,5.277l9.912-0.998l0.358,3.556L145.249,34.932z"/>
	<path d="M167.689,15.065l1.755,17.432l-4.226,0.425l-1.755-17.432l-1.575,0.159c-0.836,0.084-1.37,0.286-1.602,0.603
		c-0.233,0.318-0.32,0.779-0.26,1.38l-2.941-1.146c-0.049-0.487-0.058-0.967-0.027-1.44c0.031-0.475,0.158-0.91,0.384-1.305
		s0.57-0.729,1.032-1.002c0.464-0.273,1.093-0.449,1.89-0.529l13.351-1.344l0.358,3.556L167.689,15.065z"/>
	<path d="M193.079,23.905c0.123,1.224-0.021,2.284-0.432,3.179c-0.411,0.895-0.992,1.646-1.746,2.251
		c-0.753,0.606-1.634,1.077-2.64,1.415c-1.007,0.337-2.034,0.558-3.083,0.663c-0.816,0.082-1.751,0.073-2.8-0.028
		c-1.052-0.099-2.062-0.381-3.03-0.843c-0.969-0.462-1.819-1.146-2.548-2.056c-0.729-0.907-1.171-2.129-1.326-3.665l4.226-0.425
		c0.08,0.797,0.275,1.46,0.583,1.988s0.703,0.945,1.186,1.25c0.482,0.304,1.042,0.508,1.681,0.611
		c0.639,0.102,1.327,0.116,2.065,0.042c0.466-0.047,0.931-0.153,1.397-0.317c0.463-0.164,0.873-0.387,1.228-0.669
		c0.355-0.281,0.633-0.632,0.836-1.055c0.202-0.423,0.274-0.926,0.215-1.509c-0.057-0.563-0.229-1.007-0.517-1.332
		c-0.287-0.324-0.681-0.584-1.182-0.779c-0.502-0.195-1.101-0.351-1.8-0.467c-0.699-0.115-1.497-0.247-2.395-0.392
		c-0.857-0.129-1.717-0.278-2.577-0.448c-0.861-0.168-1.648-0.428-2.36-0.778c-0.712-0.35-1.311-0.829-1.794-1.439
		c-0.483-0.609-0.777-1.438-0.883-2.487c-0.113-1.127,0.017-2.117,0.392-2.97c0.376-0.852,0.907-1.572,1.594-2.162
		c0.686-0.589,1.489-1.049,2.408-1.377c0.92-0.328,1.875-0.542,2.866-0.641c1.088-0.11,2.13-0.097,3.125,0.038
		c0.995,0.135,1.893,0.428,2.695,0.878c0.801,0.449,1.467,1.08,2,1.889c0.533,0.81,0.881,1.826,1.043,3.046l-3.993,0.402
		c-0.045-0.644-0.208-1.182-0.487-1.615c-0.279-0.433-0.628-0.771-1.044-1.014c-0.417-0.243-0.89-0.406-1.418-0.49
		c-0.529-0.084-1.066-0.099-1.61-0.044c-0.409,0.041-0.841,0.129-1.299,0.263c-0.457,0.135-0.871,0.323-1.238,0.566
		c-0.369,0.244-0.657,0.552-0.864,0.926c-0.208,0.375-0.286,0.823-0.233,1.349c0.078,0.58,0.325,1.038,0.742,1.368
		c0.416,0.331,0.938,0.588,1.565,0.769c0.626,0.183,1.332,0.323,2.118,0.421c0.785,0.097,1.586,0.213,2.405,0.346
		c0.838,0.133,1.654,0.295,2.449,0.491c0.795,0.194,1.508,0.486,2.135,0.874c0.629,0.389,1.15,0.896,1.566,1.521
		C192.718,22.076,192.977,22.895,193.079,23.905z"/>
</g>
</svg>