<!-- Generator: Adobe Illustrator 22.1.0, SVG Export Plug-In  -->
<svg version="1.1"
	 xmlns="http://www.w3.org/2000/svg" xmlns:xlink="http://www.w3.org/1999/xlink" xmlns:a="http://ns.adobe.com/AdobeSVGViewerExtensions/3.0/"
	 x="0px" y="0px" width="499.217px" height="54.821px" viewBox="0 0 499.217 54.821"
	 style="enable-background:new 0 0 499.217 54.821;" xml:space="preserve">
<style type="text/css">
	.st0{fill:#63C9D6;}
</style>
<defs>
</defs>
<polygon class="st0" points="38.338,3.822 498.797,0 499.217,50.677 0,54.821 "/>
<g>
	<path d="M46.734,41.279l5.81-25.201h17.29l-1.155,4.971h-11.34l-1.225,5.285h10.22l-1.085,4.654H55.064l-1.225,5.32h11.655
		l-1.155,4.971H46.734z"/>
	<path d="M91.43,28.645c-0.467,2.006-1.155,3.791-2.065,5.354c-0.91,1.564-2.019,2.883-3.325,3.955
		c-1.307,1.074-2.806,1.896-4.498,2.469c-1.692,0.572-3.541,0.857-5.547,0.857h-7.595l5.81-25.201h8.995
		c1.913,0,3.494,0.322,4.743,0.963c1.248,0.643,2.199,1.529,2.852,2.66c0.653,1.133,1.027,2.463,1.12,3.99
		C92.013,25.221,91.849,26.871,91.43,28.645z M85.479,28.574c0.256-1.121,0.344-2.146,0.263-3.08
		c-0.082-0.934-0.339-1.727-0.77-2.381c-0.432-0.652-1.044-1.16-1.837-1.521c-0.794-0.361-1.785-0.543-2.975-0.543h-1.155
		l-3.5,15.26h1.365c1.19,0,2.257-0.197,3.203-0.596c0.945-0.396,1.779-0.938,2.502-1.627c0.723-0.688,1.324-1.504,1.802-2.449
		C84.855,30.692,85.223,29.67,85.479,28.574z"/>
	<path d="M92.304,41.279l5.81-25.201h5.95l-5.81,25.201H92.304z"/>
	<path d="M125.851,35.713c-0.898,1.285-1.955,2.381-3.167,3.291c-1.213,0.91-2.55,1.615-4.007,2.117
		c-1.458,0.502-2.946,0.752-4.463,0.752c-1.937,0-3.582-0.338-4.935-1.014c-1.354-0.678-2.427-1.605-3.22-2.783
		c-0.793-1.178-1.284-2.566-1.47-4.164c-0.187-1.6-0.07-3.32,0.35-5.164c0.443-1.889,1.131-3.645,2.065-5.268
		c0.933-1.621,2.071-3.021,3.413-4.199c1.341-1.178,2.858-2.105,4.55-2.783c1.692-0.676,3.518-1.014,5.478-1.014
		c1.493,0,2.835,0.203,4.025,0.611c1.19,0.408,2.181,1.01,2.975,1.803c0.793,0.793,1.359,1.779,1.698,2.957
		c0.338,1.18,0.402,2.539,0.192,4.078h-5.81c0.14-1.4-0.21-2.52-1.05-3.359s-1.949-1.26-3.325-1.26c-1.167,0-2.205,0.256-3.115,0.77
		c-0.91,0.514-1.709,1.172-2.397,1.977c-0.688,0.807-1.26,1.705-1.715,2.695c-0.455,0.992-0.799,1.979-1.032,2.957
		c-0.233,0.98-0.35,1.961-0.35,2.941c0,0.98,0.151,1.871,0.455,2.678c0.303,0.805,0.793,1.457,1.47,1.959s1.586,0.752,2.73,0.752
		c0.84,0,1.616-0.145,2.328-0.438c0.711-0.291,1.348-0.688,1.908-1.189s1.05-1.09,1.47-1.768c0.42-0.676,0.782-1.4,1.085-2.17h5.845
		C127.409,33.02,126.749,34.432,125.851,35.713z"/>
	<path d="M129.333,41.279l5.81-25.201h5.95l-5.81,25.201H129.333z"/>
	<path d="M166.748,28.68c-0.42,1.842-1.103,3.568-2.048,5.18c-0.945,1.609-2.088,3.01-3.43,4.199
		c-1.342,1.189-2.859,2.123-4.55,2.801c-1.692,0.676-3.495,1.014-5.407,1.014c-1.914,0-3.559-0.338-4.935-1.014
		c-1.377-0.678-2.462-1.611-3.255-2.801c-0.794-1.189-1.29-2.59-1.488-4.199c-0.198-1.611-0.087-3.338,0.333-5.18
		c0.42-1.844,1.103-3.57,2.047-5.182c0.945-1.609,2.088-3.01,3.43-4.199c1.341-1.189,2.858-2.123,4.55-2.801
		c1.692-0.676,3.494-1.014,5.408-1.014c1.913,0,3.558,0.338,4.935,1.014c1.376,0.678,2.461,1.611,3.255,2.801
		c0.793,1.189,1.289,2.59,1.488,4.199C167.279,25.109,167.168,26.836,166.748,28.68z M160.798,28.68
		c0.233-1.004,0.344-2.002,0.333-2.994c-0.012-0.99-0.187-1.883-0.525-2.676c-0.339-0.793-0.857-1.441-1.558-1.943
		s-1.622-0.752-2.765-0.752c-1.167,0-2.211,0.25-3.132,0.752c-0.922,0.502-1.732,1.15-2.433,1.943
		c-0.7,0.793-1.283,1.686-1.75,2.676c-0.467,0.992-0.817,1.99-1.05,2.994c-0.233,1.002-0.345,2-0.333,2.992
		c0.011,0.992,0.18,1.885,0.507,2.678c0.327,0.793,0.84,1.439,1.54,1.941s1.633,0.752,2.8,0.752c1.143,0,2.176-0.25,3.098-0.752
		c0.921-0.502,1.732-1.148,2.433-1.941s1.289-1.686,1.768-2.678C160.209,30.68,160.565,29.682,160.798,28.68z"/>
	<path d="M178.963,41.279l3.885-16.766c0.117-0.49,0.204-0.992,0.263-1.504c0.058-0.514,0.041-0.98-0.053-1.4
		s-0.286-0.771-0.578-1.051c-0.292-0.279-0.741-0.42-1.347-0.42c-0.607,0-1.115,0.141-1.522,0.42
		c-0.409,0.279-0.752,0.631-1.033,1.051c-0.28,0.42-0.507,0.887-0.683,1.4c-0.175,0.512-0.321,1.014-0.438,1.504l-3.885,16.766
		h-5.95l3.99-17.361c0.653-2.822,1.878-4.934,3.675-6.334c1.796-1.4,4.106-2.1,6.93-2.1c2.893,0,4.888,0.711,5.985,2.135
		c1.097,1.424,1.33,3.523,0.7,6.299l-3.99,17.361H178.963z"/>
	<path d="M189.288,41.279l5.81-25.201h17.29l-1.155,4.971h-11.34l-1.225,5.285h10.22l-1.085,4.654h-10.185l-1.225,5.32h11.655
		l-1.155,4.971H189.288z"/>
	<path d="M228.768,33.662c-0.35,1.514-0.957,2.795-1.82,3.844c-0.864,1.049-1.879,1.893-3.045,2.533
		c-1.167,0.641-2.427,1.107-3.78,1.398c-1.354,0.291-2.684,0.436-3.99,0.436c-0.583,0-1.249-0.047-1.995-0.141
		c-0.747-0.094-1.488-0.27-2.223-0.529c-0.735-0.258-1.441-0.6-2.118-1.023c-0.677-0.422-1.242-0.975-1.697-1.658
		c-0.455-0.682-0.758-1.488-0.91-2.422c-0.151-0.934-0.087-2.031,0.192-3.291h5.95c-0.187,0.84-0.216,1.564-0.087,2.17
		c0.128,0.607,0.385,1.098,0.77,1.471c0.385,0.373,0.886,0.646,1.505,0.822c0.618,0.176,1.324,0.262,2.118,0.262
		c0.49,0,0.998-0.057,1.522-0.174s1.026-0.303,1.505-0.559c0.478-0.256,0.898-0.602,1.26-1.031c0.362-0.432,0.613-0.949,0.753-1.555
		c0.14-0.559,0.122-1.014-0.053-1.363s-0.49-0.658-0.945-0.926c-0.455-0.27-1.05-0.514-1.785-0.734s-1.592-0.471-2.572-0.752
		c-0.934-0.279-1.867-0.57-2.8-0.873c-0.934-0.303-1.75-0.711-2.45-1.223c-0.7-0.512-1.208-1.164-1.523-1.957
		c-0.315-0.791-0.332-1.805-0.052-3.041c0.327-1.396,0.88-2.592,1.663-3.58c0.781-0.99,1.697-1.807,2.748-2.447
		c1.05-0.641,2.193-1.107,3.43-1.398s2.461-0.436,3.675-0.436c1.33,0,2.555,0.139,3.675,0.42c1.12,0.279,2.059,0.74,2.817,1.383
		c0.758,0.641,1.295,1.475,1.61,2.502c0.315,1.027,0.333,2.287,0.052,3.779h-5.635c0.21-0.67,0.245-1.242,0.105-1.717
		c-0.14-0.473-0.385-0.859-0.735-1.16c-0.35-0.301-0.782-0.52-1.295-0.66c-0.513-0.139-1.05-0.207-1.61-0.207
		c-0.42,0-0.881,0.041-1.382,0.123c-0.502,0.08-0.98,0.227-1.435,0.436s-0.852,0.496-1.19,0.855
		c-0.339,0.361-0.566,0.811-0.683,1.346c-0.117,0.629,0,1.137,0.35,1.521c0.35,0.383,0.851,0.709,1.505,0.979
		c0.653,0.268,1.405,0.506,2.257,0.715c0.852,0.211,1.721,0.432,2.607,0.664c0.887,0.258,1.738,0.555,2.555,0.893
		c0.816,0.338,1.505,0.773,2.065,1.311c0.56,0.535,0.957,1.205,1.19,2.008C229.071,31.479,229.048,32.475,228.768,33.662z"/>
	<path d="M253.022,41.279l2.38-10.291h-5.39l-2.38,10.291h-5.95l3.99-17.326c0.653-2.846,1.878-4.969,3.675-6.369
		c1.796-1.4,4.106-2.1,6.93-2.1c2.894,0,4.888,0.711,5.985,2.135c1.097,1.424,1.33,3.523,0.7,6.299l-3.99,17.361H253.022z
		 M256.907,24.488c0.117-0.486,0.204-0.984,0.263-1.496c0.058-0.51,0.041-0.975-0.053-1.391c-0.093-0.418-0.286-0.766-0.577-1.045
		c-0.292-0.279-0.741-0.418-1.348-0.418s-1.114,0.139-1.522,0.418s-0.752,0.627-1.032,1.045c-0.28,0.416-0.508,0.881-0.683,1.391
		c-0.175,0.512-0.321,1.01-0.438,1.496l-0.455,1.846h5.389L256.907,24.488z"/>
	<path d="M274.687,41.279l3.885-16.766c0.116-0.49,0.204-0.992,0.263-1.504c0.058-0.514,0.04-0.98-0.053-1.4
		c-0.094-0.42-0.286-0.771-0.578-1.051s-0.74-0.42-1.347-0.42c-0.607,0-1.115,0.141-1.522,0.42
		c-0.409,0.279-0.753,0.631-1.033,1.051c-0.279,0.42-0.507,0.887-0.683,1.4c-0.175,0.512-0.32,1.014-0.438,1.504l-3.885,16.766
		h-5.95l3.99-17.361c0.653-2.822,1.878-4.934,3.675-6.334s4.106-2.1,6.931-2.1c2.893,0,4.888,0.711,5.984,2.135
		s1.33,3.523,0.7,6.299l-3.99,17.361H274.687z"/>
	<path d="M301.287,21.049l-4.655,20.23h-5.95l4.655-20.23h-1.295c-0.91,0-1.569,0.164-1.978,0.49s-0.694,0.863-0.857,1.609
		l-3.43-2.029c0.14-0.607,0.326-1.213,0.56-1.82s0.565-1.148,0.998-1.627c0.431-0.479,0.985-0.863,1.662-1.156
		c0.677-0.291,1.528-0.438,2.555-0.438h16.45l-1.155,4.971H301.287z"/>
	<path d="M306.677,41.279l5.81-25.201h17.29l-1.154,4.971h-11.341l-1.225,5.285h10.22l-1.085,4.654h-10.185l-1.226,5.32h11.655
		l-1.155,4.971H306.677z"/>
	<path d="M350.672,23.078c-0.164,0.701-0.409,1.377-0.735,2.031c-0.327,0.652-0.729,1.26-1.207,1.82
		c-0.479,0.559-1.027,1.049-1.646,1.469s-1.289,0.736-2.013,0.945c0.7,0.211,1.254,0.537,1.663,0.98
		c0.408,0.443,0.7,0.951,0.875,1.521c0.175,0.572,0.25,1.203,0.228,1.891c-0.023,0.689-0.117,1.395-0.28,2.117l-1.26,5.426h-5.775
		l1.016-4.375c0.162-0.77,0.262-1.482,0.297-2.135c0.035-0.654-0.047-1.213-0.245-1.682c-0.198-0.465-0.548-0.834-1.05-1.102
		c-0.502-0.268-1.185-0.402-2.048-0.402h-1.89l-2.24,9.695h-5.949l5.81-25.201h10.045c1.097,0,2.1,0.141,3.01,0.42
		c0.91,0.281,1.663,0.713,2.258,1.295c0.595,0.584,1.003,1.312,1.225,2.188S350.952,21.889,350.672,23.078z M344.512,24.008
		c0.233-1.023,0.081-1.822-0.455-2.404c-0.537-0.58-1.657-0.869-3.36-0.869h-1.574l-1.54,6.684h1.819c0.49,0,1.003-0.045,1.54-0.139
		c0.537-0.092,1.044-0.266,1.522-0.521s0.898-0.604,1.261-1.045C344.086,25.272,344.349,24.703,344.512,24.008z"/>
	<path d="M350.251,41.279l5.811-25.201h5.95l-5.811,25.201H350.251z"/>
	<path d="M387.667,28.68c-0.421,1.842-1.103,3.568-2.048,5.18c-0.945,1.609-2.089,3.01-3.43,4.199
		c-1.343,1.189-2.859,2.123-4.551,2.801c-1.691,0.676-3.494,1.014-5.407,1.014s-3.559-0.338-4.935-1.014
		c-1.377-0.678-2.462-1.611-3.255-2.801c-0.794-1.189-1.29-2.59-1.488-4.199c-0.198-1.611-0.087-3.338,0.333-5.18
		c0.42-1.844,1.103-3.57,2.047-5.182c0.945-1.609,2.089-3.01,3.431-4.199c1.341-1.189,2.857-2.123,4.55-2.801
		c1.691-0.676,3.494-1.014,5.407-1.014s3.559,0.338,4.936,1.014c1.376,0.678,2.461,1.611,3.255,2.801
		c0.793,1.189,1.289,2.59,1.487,4.199C388.197,25.109,388.087,26.836,387.667,28.68z M381.717,28.68
		c0.232-1.004,0.344-2.002,0.332-2.994c-0.012-0.99-0.187-1.883-0.524-2.676c-0.339-0.793-0.857-1.441-1.558-1.943
		s-1.622-0.752-2.766-0.752c-1.167,0-2.211,0.25-3.132,0.752c-0.922,0.502-1.732,1.15-2.433,1.943s-1.283,1.686-1.75,2.676
		c-0.467,0.992-0.817,1.99-1.05,2.994c-0.233,1.002-0.345,2-0.333,2.992c0.012,0.992,0.181,1.885,0.508,2.678
		c0.326,0.793,0.84,1.439,1.54,1.941s1.633,0.752,2.8,0.752c1.143,0,2.176-0.25,3.098-0.752c0.921-0.502,1.732-1.148,2.433-1.941
		s1.289-1.686,1.768-2.678C381.127,30.68,381.483,29.682,381.717,28.68z"/>
	<path d="M410.872,23.078c-0.164,0.701-0.409,1.377-0.735,2.031c-0.327,0.652-0.729,1.26-1.207,1.82
		c-0.479,0.559-1.027,1.049-1.646,1.469s-1.289,0.736-2.013,0.945c0.7,0.211,1.254,0.537,1.663,0.98
		c0.408,0.443,0.7,0.951,0.875,1.521c0.175,0.572,0.25,1.203,0.228,1.891c-0.023,0.689-0.117,1.395-0.28,2.117l-1.26,5.426h-5.775
		l1.016-4.375c0.162-0.77,0.262-1.482,0.297-2.135c0.035-0.654-0.047-1.213-0.245-1.682c-0.198-0.465-0.548-0.834-1.05-1.102
		c-0.502-0.268-1.185-0.402-2.048-0.402h-1.89l-2.24,9.695h-5.949l5.81-25.201h10.045c1.097,0,2.1,0.141,3.01,0.42
		c0.91,0.281,1.663,0.713,2.258,1.295c0.595,0.584,1.003,1.312,1.225,2.188S411.152,21.889,410.872,23.078z M404.712,24.008
		c0.233-1.023,0.081-1.822-0.455-2.404c-0.537-0.58-1.657-0.869-3.36-0.869h-1.574l-1.54,6.684h1.819c0.49,0,1.003-0.045,1.54-0.139
		c0.537-0.092,1.044-0.266,1.522-0.521s0.898-0.604,1.261-1.045C404.286,25.272,404.549,24.703,404.712,24.008z"/>
	<path d="M410.451,41.279l5.811-25.201h17.29l-1.155,4.971h-11.34l-1.225,5.285h10.22l-1.085,4.654h-10.186l-1.225,5.32h11.655
		l-1.155,4.971H410.451z"/>
	<path d="M449.932,33.662c-0.351,1.514-0.957,2.795-1.82,3.844s-1.879,1.893-3.045,2.533c-1.167,0.641-2.427,1.107-3.78,1.398
		s-2.684,0.436-3.99,0.436c-0.583,0-1.248-0.047-1.994-0.141c-0.747-0.094-1.488-0.27-2.223-0.529
		c-0.735-0.258-1.441-0.6-2.118-1.023c-0.677-0.422-1.242-0.975-1.697-1.658c-0.455-0.682-0.758-1.488-0.91-2.422
		c-0.151-0.934-0.087-2.031,0.192-3.291h5.95c-0.187,0.84-0.216,1.564-0.087,2.17c0.128,0.607,0.385,1.098,0.77,1.471
		s0.887,0.646,1.505,0.822s1.324,0.262,2.118,0.262c0.489,0,0.997-0.057,1.522-0.174c0.524-0.117,1.026-0.303,1.505-0.559
		c0.478-0.256,0.897-0.602,1.26-1.031c0.361-0.432,0.612-0.949,0.753-1.555c0.14-0.559,0.122-1.014-0.053-1.363
		s-0.49-0.658-0.945-0.926c-0.455-0.27-1.05-0.514-1.785-0.734c-0.734-0.221-1.592-0.471-2.572-0.752
		c-0.934-0.279-1.867-0.57-2.8-0.873c-0.934-0.303-1.75-0.711-2.45-1.223s-1.207-1.164-1.522-1.957
		c-0.315-0.791-0.332-1.805-0.053-3.041c0.327-1.396,0.881-2.592,1.663-3.58c0.781-0.99,1.697-1.807,2.747-2.447
		s2.193-1.107,3.43-1.398c1.237-0.291,2.462-0.436,3.676-0.436c1.33,0,2.555,0.139,3.675,0.42c1.12,0.279,2.059,0.74,2.817,1.383
		c0.758,0.641,1.295,1.475,1.61,2.502c0.314,1.027,0.332,2.287,0.052,3.779h-5.635c0.21-0.67,0.245-1.242,0.105-1.717
		c-0.141-0.473-0.386-0.859-0.735-1.16s-0.782-0.52-1.295-0.66c-0.514-0.139-1.05-0.207-1.61-0.207c-0.42,0-0.881,0.041-1.382,0.123
		c-0.503,0.08-0.98,0.227-1.436,0.436s-0.852,0.496-1.189,0.855c-0.339,0.361-0.566,0.811-0.683,1.346
		c-0.117,0.629,0,1.137,0.35,1.521c0.35,0.383,0.852,0.709,1.505,0.979c0.653,0.268,1.405,0.506,2.258,0.715
		c0.852,0.211,1.721,0.432,2.607,0.664c0.887,0.258,1.738,0.555,2.555,0.893s1.505,0.773,2.065,1.311
		c0.56,0.535,0.956,1.205,1.189,2.008C450.234,31.479,450.211,32.475,449.932,33.662z"/>
</g>
</svg>